<svg xmlns="http://www.w3.org/2000/svg" viewBox="0 0 72 72" role="img" aria-label="PT Samudra Biru Indonesia">
  <rect width="72" height="72" fill="#12243a"/>
  <circle cx="36" cy="36" r="34" fill="none" stroke="#d4a017" stroke-width="1.75"/>
  <path d="M18 44c5.5-3.2 9.5-3.2 14.5 0s9.5 3.2 15 0 9.2-3.2 14.5 0" fill="none" stroke="#d4a017" stroke-width="1.8" stroke-linecap="round"/>
  <path d="M18 50c5.5-3.2 9.5-3.2 14.5 0s9.5 3.2 15 0 9.2-3.2 14.5 0" fill="none" stroke="#d4a017" stroke-width="1.2" stroke-linecap="round" opacity=".55"/>
  <path d="M36 14l14 28H22Z" fill="#1e4a73"/>
  <path d="M36 14l14 28H36Z" fill="#2a6a9a"/>
  <path d="M36 18v22" stroke="#e8eef4" stroke-width=".8" opacity=".35"/>
  <path d="M48 18c2.4.4 4.2 2.2 4.6 4.4-1.8-.4-3.4-.2-4.8 1.2.1-2.2.2-4 .2-5.6z" fill="#d4a017"/>
  <circle cx="24" cy="28" r="1.4" fill="#a07820"/>
</svg>
